<?xml version="1.0" encoding="utf-8"?>
<!-- Generator: Adobe Illustrator 22.0.0, SVG Export Plug-In . SVG Version: 6.00 Build 0)  -->
<svg version="1.1" id="Слой_1" xmlns="http://www.w3.org/2000/svg" xmlns:xlink="http://www.w3.org/1999/xlink" x="0px" y="0px"
	 viewBox="0 0 20 20" style="enable-background:new 0 0 20 20;" xml:space="preserve">
<style type="text/css">
	.st0{fill:#303030;}
	.st1{fill:#FFFFFF;}
	.st2{fill:none;}
	.st3{fill:#FFFFFF;stroke:#070202;stroke-miterlimit:10;}
	.st4{fill:#FFFFFF;stroke:#FFFFFF;stroke-miterlimit:10;}
</style>
<g id="Слой_1_1_">
	<g>
		<g>
			<g>
				<g>
					<circle class="st0" cx="9.6" cy="10.2" r="9"/>
				</g>
				<path d="M9.6,1.3c2.4,0,4.6,0.9,6.3,2.6s2.6,3.9,2.6,6.3s-0.9,4.6-2.6,6.3s-3.9,2.6-6.3,2.6s-4.6-0.9-6.3-2.6
					c-1.7-1.7-2.6-3.9-2.6-6.3s0.9-4.6,2.6-6.3S7.2,1.3,9.6,1.3 M9.6,1.2c-5,0-9,4-9,9s4,9,9,9s9-4,9-9S14.5,1.2,9.6,1.2L9.6,1.2z"
					/>
			</g>
			<g>
				<g id="XMLID_1_">
					<g>
						<path class="st1" d="M13.7,13.8c0.4,0.5,0.3,1.1-0.1,1.5c-0.5,0.4-1.1,0.3-1.5-0.1c-0.2-0.3-0.3-0.7-0.2-1l0,0L6.3,7.9
							c-0.6,0.2-1.2,0-1.6-0.5C4.4,7.1,4.1,6,4.4,6.1l0.9,0.8c0.2,0.2,0.5,0.2,0.7,0l0.2-0.2c0.3-0.3,0.3-0.8,0-1.1L5.4,5
							C5.4,4.6,6.6,5,7,5.4c0.4,0.5,0.5,1.1,0.2,1.6l5.5,6.4l0,0C13.1,13.4,13.4,13.5,13.7,13.8z M13.3,15c0.3-0.2,0.3-0.7,0.1-1
							c-0.2-0.3-0.7-0.3-1-0.1s-0.3,0.7-0.1,1C12.6,15.3,13,15.3,13.3,15z"/>
					</g>
					<g>
						<path class="st2" d="M12.8,13.4L12.8,13.4L7.3,7.1C7.5,6.5,7.4,5.9,7,5.4S5.4,4.6,5.5,5l0.7,0.6c0.3,0.3,0.3,0.8,0,1.1L6,6.9
							c-0.2,0.2-0.5,0.2-0.7,0L4.4,6.1C4.1,6,4.4,7.1,4.7,7.4c0.4,0.5,1,0.6,1.6,0.5l5.5,6.4l0,0c-0.1,0.3,0,0.7,0.2,1
							c0.4,0.5,1.1,0.5,1.5,0.1c0.5-0.4,0.5-1.1,0.1-1.5C13.4,13.5,13.1,13.4,12.8,13.4z"/>
						<path class="st2" d="M13.3,15c-0.3,0.2-0.7,0.2-1-0.1c-0.2-0.3-0.2-0.7,0.1-1s0.7-0.2,1,0.1C13.6,14.4,13.6,14.8,13.3,15z"/>
					</g>
				</g>
				<g>
					<path class="st3" d="M9.2,9.4l4.4-4.1c0.1-0.1,0.2-0.1,0.2,0l1,1c0.1,0.1,0.1,0.2,0,0.2l-4.4,4.1c-0.1,0.1-0.2,0.1-0.2,0l-1-1
						C9.1,9.6,9.1,9.5,9.2,9.4z"/>
					<g>
						<path class="st1" d="M4.8,14.3l0.7-0.5l4-3.8l0.3,0.3l-4,3.8l-0.5,0.7l-0.7,0.4c0,0-0.1-0.1-0.3-0.3L4.8,14.3z"/>
					</g>
				</g>
			</g>
		</g>
		<path class="st4" d="M13.3,5.6L8.6,9.8c-0.3,0.2-0.3,0.6,0,0.9L9,11.1c0.2,0.3,0.6,0.3,0.9,0L14.5,7c0.3-0.2,0.3-0.6,0-0.9
			l-0.4-0.4C13.9,5.4,13.5,5.4,13.3,5.6z"/>
	</g>
</g>
</svg>
